<svg xmlns="http://www.w3.org/2000/svg" width="0" height="0" style="position:absolute">
  <!-- Basic Shapes -->
  <symbol id="shape-cube" viewBox="0 0 24 24">
    <rect x="2" y="2" width="20" height="20" fill="currentColor" />
  </symbol>
  
  <symbol id="shape-sphere" viewBox="0 0 24 24">
    <circle cx="12" cy="12" r="10" fill="currentColor" />
  </symbol>
  
  <symbol id="shape-pyramid" viewBox="0 0 24 24">
    <polygon points="12,2 22,22 2,22" fill="currentColor" />
  </symbol>
  
  <symbol id="shape-cylinder" viewBox="0 0 24 24">
    <path d="M20,6 C20,3.791 16.418,2 12,2 C7.582,2 4,3.791 4,6 L4,18 C4,20.209 7.582,22 12,22 C16.418,22 20,20.209 20,18 L20,6 Z" fill="currentColor" />
    <ellipse cx="12" cy="6" rx="8" ry="4" fill="currentColor" />
    <ellipse cx="12" cy="18" rx="8" ry="4" fill="currentColor" />
  </symbol>
  
  <symbol id="shape-ramp" viewBox="0 0 24 24">
    <polygon points="2,22 22,22 22,2" fill="currentColor" />
  </symbol>
  
  <symbol id="shape-platform" viewBox="0 0 24 24">
    <rect x="2" y="10" width="20" height="4" fill="currentColor" />
  </symbol>
  
  <!-- Game Elements -->
  <symbol id="shape-spinner" viewBox="0 0 24 24">
    <rect x="11" y="2" width="2" height="20" fill="currentColor" />
    <rect x="2" y="11" width="20" height="2" fill="currentColor" />
  </symbol>
  
  <symbol id="shape-bouncer" viewBox="0 0 24 24">
    <path d="M2,18 C2,12 22,12 22,18" stroke="currentColor" stroke-width="3" fill="none" />
    <rect x="2" y="18" width="20" height="4" fill="currentColor" />
  </symbol>
  
  <symbol id="shape-portal" viewBox="0 0 24 24">
    <circle cx="12" cy="12" r="10" fill="none" stroke="currentColor" stroke-width="2" />
    <circle cx="12" cy="12" r="6" fill="none" stroke="currentColor" stroke-width="2" />
    <circle cx="12" cy="12" r="2" fill="currentColor" />
  </symbol>
  
  <symbol id="shape-trigger" viewBox="0 0 24 24">
    <rect x="4" y="4" width="16" height="16" fill="none" stroke="currentColor" stroke-width="2" stroke-dasharray="2" />
    <circle cx="12" cy="12" r="4" fill="currentColor" opacity="0.5" />
  </symbol>
  
  <symbol id="shape-breakable" viewBox="0 0 24 24">
    <rect x="3" y="3" width="18" height="18" fill="currentColor" />
    <path d="M3,3 L21,21 M3,21 L21,3" stroke="white" stroke-width="2" />
  </symbol>
  
  <symbol id="shape-teleporter" viewBox="0 0 24 24">
    <circle cx="12" cy="12" r="9" fill="currentColor" opacity="0.7" />
    <path d="M12,3 L12,21 M3,12 L21,12" stroke="white" stroke-width="2" />
  </symbol>
  
  <!-- PowerUps -->
  <symbol id="powerup-speed" viewBox="0 0 24 24">
    <polygon points="12,2 16,12 21,12 17,17 19,22 12,19 5,22 7,17 3,12 8,12" fill="currentColor" />
  </symbol>
  
  <symbol id="powerup-gravity" viewBox="0 0 24 24">
    <path d="M12,2 L12,22 M7,7 L12,2 L17,7 M7,17 L12,22 L17,17" stroke="currentColor" stroke-width="2" fill="none" />
  </symbol>
  
  <symbol id="powerup-multiplier" viewBox="0 0 24 24">
    <circle cx="8" cy="12" r="5" fill="currentColor" />
    <circle cx="16" cy="12" r="5" fill="currentColor" />
    <circle cx="12" cy="8" r="5" fill="currentColor" />
    <circle cx="12" cy="16" r="5" fill="currentColor" />
  </symbol>
  
  <symbol id="powerup-size" viewBox="0 0 24 24">
    <path d="M9,4 L4,4 L4,9 M20,9 L20,4 L15,4 M4,15 L4,20 L9,20 M15,20 L20,20 L20,15" stroke="currentColor" stroke-width="2" fill="none" />
  </symbol>
  
  <symbol id="powerup-slow" viewBox="0 0 24 24">
    <circle cx="12" cy="12" r="10" fill="none" stroke="currentColor" stroke-width="2" />
    <path d="M12,6 L12,12 L16,14" stroke="currentColor" stroke-width="2" fill="none" />
  </symbol>
  
  <symbol id="powerup-explosive" viewBox="0 0 24 24">
    <circle cx="12" cy="12" r="6" fill="currentColor" />
    <path d="M12,2 L12,6 M12,18 L12,22 M2,12 L6,12 M18,12 L22,12 M5,5 L8,8 M16,16 L19,19 M5,19 L8,16 M16,8 L19,5" stroke="currentColor" stroke-width="2" />
  </symbol>
  
  <symbol id="powerup-magnet" viewBox="0 0 24 24">
    <path d="M6,4 C12,4 12,12 6,12 C0,12 0,4 6,4 Z M18,12 C24,12 24,20 18,20 C12,20 12,12 18,12 Z" fill="currentColor" />
  </symbol>
  
  <symbol id="powerup-ghost" viewBox="0 0 24 24">
    <path d="M12,3 C7.029,3 3,7.029 3,12 L3,18 C3,18 3,21 6,21 C9,21 9,18 9,18 C9,18 9,21 12,21 C15,21 15,18 15,18 C15,18 15,21 18,21 C21,21 21,18 21,18 L21,12 C21,7.029 16.971,3 12,3 Z" fill="currentColor" opacity="0.7" />
    <circle cx="9" cy="11" r="1.5" fill="white" />
    <circle cx="15" cy="11" r="1.5" fill="white" />
  </symbol>
  
  <!-- UI Elements -->
  <symbol id="ui-play" viewBox="0 0 24 24">
    <polygon points="6,3 20,12 6,21" fill="currentColor" />
  </symbol>
  
  <symbol id="ui-pause" viewBox="0 0 24 24">
    <rect x="6" y="4" width="4" height="16" fill="currentColor" />
    <rect x="14" y="4" width="4" height="16" fill="currentColor" />
  </symbol>
  
  <symbol id="ui-settings" viewBox="0 0 24 24">
    <circle cx="12" cy="12" r="3" fill="currentColor" />
    <path d="M19.4 15a1.65 1.65 0 0 0 .33 1.82l.06.06a2 2 0 0 1 0 2.83 2 2 0 0 1-2.83 0l-.06-.06a1.65 1.65 0 0 0-1.82-.33 1.65 1.65 0 0 0-1 1.51V21a2 2 0 0 1-2 2 2 2 0 0 1-2-2v-.09A1.65 1.65 0 0 0 9 19.4a1.65 1.65 0 0 0-1.82.33l-.06.06a2 2 0 0 1-2.83 0 2 2 0 0 1 0-2.83l.06-.06a1.65 1.65 0 0 0 .33-1.82 1.65 1.65 0 0 0-1.51-1H3a2 2 0 0 1-2-2 2 2 0 0 1 2-2h.09A1.65 1.65 0 0 0 4.6 9a1.65 1.65 0 0 0-.33-1.82l-.06-.06a2 2 0 0 1 0-2.83 2 2 0 0 1 2.83 0l.06.06a1.65 1.65 0 0 0 1.82.33H9a1.65 1.65 0 0 0 1-1.51V3a2 2 0 0 1 2-2 2 2 0 0 1 2 2v.09a1.65 1.65 0 0 0 1 1.51 1.65 1.65 0 0 0 1.82-.33l.06-.06a2 2 0 0 1 2.83 0 2 2 0 0 1 0 2.83l-.06.06a1.65 1.65 0 0 0-.33 1.82V9a1.65 1.65 0 0 0 1.51 1H21a2 2 0 0 1 2 2 2 2 0 0 1-2 2h-.09a1.65 1.65 0 0 0-1.51 1z" fill="none" stroke="currentColor" stroke-width="2" />
  </symbol>
  
  <symbol id="ui-home" viewBox="0 0 24 24">
    <path d="M3,10.182V22h18V10.182L12,2Z" fill="currentColor" />
    <rect x="9" y="14" width="6" height="8" fill="white" />
  </symbol>
  
  <symbol id="ui-restart" viewBox="0 0 24 24">
    <path d="M23,12c0,6.075-4.925,11-11,11S1,18.075,1,12S5.925,1,12,1" fill="none" stroke="currentColor" stroke-width="2" />
    <path d="M15,1l-4,4l4,4" fill="none" stroke="currentColor" stroke-width="2" />
  </symbol>
  
  <symbol id="ui-level" viewBox="0 0 24 24">
    <rect x="3" y="3" width="18" height="18" rx="2" fill="currentColor" />
    <path d="M9,7L9,17M15,7L15,17M7,9L17,9M7,15L17,15" stroke="white" stroke-width="2" />
  </symbol>
</svg>
